<!DOCTYPE svg PUBLIC "-//W3C//DTD SVG 1.1//EN" "http://www.w3.org/Graphics/SVG/1.1/DTD/svg11.dtd">
<!-- Uploaded to: SVG Repo, www.svgrepo.com, Transformed by: SVG Repo Mixer Tools -->
<svg fill="#000000" height="64px" width="64px" version="1.1" id="Layer_1" xmlns="http://www.w3.org/2000/svg" xmlns:xlink="http://www.w3.org/1999/xlink" viewBox="0 0 512.001 512.001" xml:space="preserve">
<g id="SVGRepo_bgCarrier" stroke-width="0"/>
<g id="SVGRepo_tracerCarrier" stroke-linecap="round" stroke-linejoin="round"/>
<g id="SVGRepo_iconCarrier"> <g> <g> <circle cx="86.605" cy="406.877" r="8.17"/> </g> </g> <g> <g> <circle cx="130.179" cy="385.09" r="8.17"/> </g> </g> <g> <g> <path d="M508.947,108.559L376.045,1.801c-2.451-1.968-5.814-2.358-8.648-0.998c-2.834,1.36-4.638,4.223-4.638,7.367v32.136 h-35.404c-33.644,0-67.912,12.006-96.493,33.806c-28.581,21.8-49.22,51.676-58.115,84.124l-18.327,66.862l-8.697-31.728 c-2.583-9.42-16.665-20.162-26.435-20.162H16.341V56.648h102.945c25.104,0,50.505,7.423,73.457,21.468 c3.849,2.354,8.877,1.143,11.233-2.704c2.355-3.849,1.144-8.878-2.705-11.235c-25.519-15.616-53.869-23.87-81.985-23.87H8.171 c-4.512,0-8.17,3.658-8.17,8.17v132.902c0,4.513,3.658,8.17,8.17,8.17l111.036-0.002c2.755,0.253,9.805,5.631,10.755,8.145 l15.984,58.311l-15.961,58.231c-0.973,2.589-8.023,7.966-10.699,8.218H8.171c-4.512,0-8.17,3.657-8.17,8.17v132.902 c0,4.513,3.658,8.17,8.17,8.17h111.115c33.644,0,67.912-12.006,96.494-33.806c28.58-21.8,49.22-51.676,58.115-84.124 l42.761-155.998c0.973-2.589,8.023-7.966,10.699-8.218h35.404v32.136c0,3.144,1.804,6.009,4.638,7.367 c2.835,1.361,6.196,0.973,8.648-0.998l132.902-106.757c1.93-1.55,3.053-3.892,3.053-6.37S510.877,110.109,508.947,108.559z M379.098,204.644v-23.264c0-4.513-3.658-8.17-8.17-8.17h-43.574c-9.769,0-23.852,10.741-26.436,20.164l-42.782,156.073 c-7.955,29.012-26.516,55.808-52.267,75.45c-25.75,19.641-56.5,30.458-86.584,30.458H16.341V338.792h102.945 c9.769,0,23.852-10.741,26.436-20.164l42.784-156.073c7.953-29.013,26.516-55.808,52.266-75.451 c25.749-19.639,56.499-30.456,86.582-30.456h43.574c4.512,0,8.17-3.657,8.17-8.17V25.214l111.686,89.714L379.098,204.644z"/> </g> </g> <g> <g> <path d="M508.947,390.705L376.045,283.947c-2.451-1.97-5.814-2.358-8.648-0.998c-2.834,1.358-4.638,4.223-4.638,7.367v32.135 l-35.326,0.002c-2.746-0.252-9.765-5.6-10.769-8.197c-1.215-4.319-5.689-6.85-10.025-5.667c-4.352,1.194-6.912,5.689-5.719,10.041 c2.584,9.421,16.666,20.162,26.436,20.162h43.574c4.512,0,8.17-3.657,8.17-8.17v-23.263l111.686,89.714l-111.686,89.715v-23.264 c0-4.513-3.658-8.17-8.17-8.17h-43.574c-25.104,0-50.505-7.423-73.457-21.468c-3.849-2.353-8.878-1.144-11.233,2.704 c-2.355,3.849-1.144,8.878,2.705,11.235c25.519,15.616,53.87,23.87,81.985,23.87h35.404v32.136c0,3.144,1.804,6.009,4.638,7.367 c1.124,0.539,2.33,0.803,3.531,0.803c1.827,0,3.638-0.613,5.118-1.801l132.902-106.757c1.93-1.55,3.053-3.892,3.053-6.37 C512,394.596,510.877,392.254,508.947,390.705z"/> </g> </g> </g>
</svg>